<svg width="30" height="30" viewBox="0 0 30 30" fill="none" xmlns="http://www.w3.org/2000/svg">
<g id="location-marker">
<path id="Vector" fill-rule="evenodd" clip-rule="evenodd" d="M7.57503 6.07505C9.54426 4.10582 12.2151 2.99951 15 2.99951C17.7849 2.99951 20.4558 4.10582 22.425 6.07505C24.3943 8.04428 25.5006 10.7151 25.5006 13.5C25.5006 16.285 24.3943 18.9558 22.425 20.925L15 28.35L7.57503 20.925C6.5999 19.95 5.82638 18.7925 5.29863 17.5185C4.77089 16.2445 4.49927 14.879 4.49927 13.5C4.49927 12.1211 4.77089 10.7556 5.29863 9.48162C5.82638 8.20764 6.5999 7.05008 7.57503 6.07505ZM15 16.5C15.7957 16.5 16.5587 16.184 17.1213 15.6214C17.684 15.0588 18 14.2957 18 13.5C18 12.7044 17.684 11.9413 17.1213 11.3787C16.5587 10.8161 15.7957 10.5 15 10.5C14.2044 10.5 13.4413 10.8161 12.8787 11.3787C12.3161 11.9413 12 12.7044 12 13.5C12 14.2957 12.3161 15.0588 12.8787 15.6214C13.4413 16.184 14.2044 16.5 15 16.5Z" fill="#F87171"/>
</g>
</svg>
